<?xml version="1.0" standalone="no"?>
<!DOCTYPE svg PUBLIC "-//W3C//DTD SVG 20010904//EN"
 "http://www.w3.org/TR/2001/REC-SVG-20010904/DTD/svg10.dtd">
<svg version="1.0" xmlns="http://www.w3.org/2000/svg"
 width="250.000000pt" height="250.000000pt" viewBox="0 0 250.000000 250.000000"
 preserveAspectRatio="xMidYMid meet">
<metadata>
Created by potrace 1.11, written by Peter Selinger 2001-2013
</metadata>
<g transform="translate(0.000000,250.000000) scale(0.100000,-0.100000)"
fill="#000000" stroke="none">
<path d="M1130 2495 c-8 -2 -49 -9 -90 -15 -159 -26 -317 -89 -460 -185 -277
-184 -463 -459 -536 -795 -22 -102 -27 -351 -8 -450 8 -41 17 -88 20 -104 9
-47 64 -196 95 -259 37 -72 84 -146 139 -217 46 -59 198 -210 211 -210 5 0 9
-6 9 -12 0 -13 6 -17 140 -95 69 -40 209 -100 253 -109 10 -2 28 -6 40 -10 12
-4 29 -9 37 -10 8 -1 33 -6 55 -10 49 -10 363 -11 425 -2 133 21 343 104 459
182 29 20 57 36 62 36 5 0 9 7 9 15 0 8 5 15 10 15 22 0 208 200 261 280 75
114 110 186 153 313 45 135 64 248 64 393 -1 186 -38 367 -110 521 -17 37 -32
70 -33 73 -5 19 -51 87 -112 171 -110 148 -241 259 -414 352 -67 36 -249 102
-309 111 -19 3 -46 8 -60 11 -28 7 -287 15 -310 10z"/>
<path d="M2472 15 c-11 -13 -9 -15 8 -15 11 0 20 7 20 15 0 19 -11 19 -28 0z"/>
</g>
</svg>
